<mxfile host="app.diagrams.net" modified="2024-04-01T11:22:06.547Z" agent="Mozilla/5.0 (Windows NT 10.0; Win64; x64) AppleWebKit/537.36 (KHTML, like Gecko) Chrome/123.0.0.0 Safari/537.36" etag="rraieyxR6lf_dCenH5ia" version="24.2.1" type="device">
  <diagram name="Page-1" id="_58v0ubLYzgDGS70Mh7u">
    <mxGraphModel dx="989" dy="514" grid="1" gridSize="10" guides="1" tooltips="1" connect="1" arrows="1" fold="1" page="1" pageScale="1" pageWidth="827" pageHeight="1169" math="0" shadow="0">
      <root>
        <mxCell id="0" />
        <mxCell id="1" parent="0" />
        <mxCell id="_dEhSH4e4z8Rzf-tdLDf-2" value="" style="endArrow=classic;html=1;rounded=0;" edge="1" parent="1">
          <mxGeometry width="50" height="50" relative="1" as="geometry">
            <mxPoint x="120" y="200" as="sourcePoint" />
            <mxPoint x="360" y="140" as="targetPoint" />
            <Array as="points">
              <mxPoint x="600" y="200" />
              <mxPoint x="640" y="240" />
              <mxPoint x="600" y="280" />
              <mxPoint x="640" y="280" />
              <mxPoint x="680" y="240" />
              <mxPoint x="680" y="120" />
              <mxPoint x="590" y="40" />
              <mxPoint x="120" y="40" />
              <mxPoint x="40" y="120" />
              <mxPoint x="40" y="240" />
              <mxPoint x="80" y="280" />
              <mxPoint x="120" y="280" />
              <mxPoint x="80" y="240" />
              <mxPoint x="120" y="200" />
            </Array>
          </mxGeometry>
        </mxCell>
        <mxCell id="_dEhSH4e4z8Rzf-tdLDf-5" value="Play" style="text;strokeColor=none;align=center;fillColor=none;html=1;verticalAlign=middle;whiteSpace=wrap;rounded=0;" vertex="1" parent="1">
          <mxGeometry x="354" y="110" width="60" height="30" as="geometry" />
        </mxCell>
        <mxCell id="_dEhSH4e4z8Rzf-tdLDf-8" value="" style="endArrow=classic;html=1;rounded=0;" edge="1" parent="1">
          <mxGeometry width="50" height="50" relative="1" as="geometry">
            <mxPoint x="130" y="280" as="sourcePoint" />
            <mxPoint x="360" y="250" as="targetPoint" />
            <Array as="points">
              <mxPoint x="90" y="240" />
              <mxPoint x="120" y="210" />
              <mxPoint x="600" y="210" />
              <mxPoint x="630" y="240" />
              <mxPoint x="590" y="280" />
              <mxPoint x="130" y="280" />
            </Array>
          </mxGeometry>
        </mxCell>
        <mxCell id="_dEhSH4e4z8Rzf-tdLDf-9" value="Credits" style="text;strokeColor=none;align=center;fillColor=none;html=1;verticalAlign=middle;whiteSpace=wrap;rounded=0;" vertex="1" parent="1">
          <mxGeometry x="354" y="230" width="60" height="30" as="geometry" />
        </mxCell>
      </root>
    </mxGraphModel>
  </diagram>
</mxfile>
